#!OML:ASF E:\Steps\Project 1\Capture day 1\Session 2\Subject.ASF
:FULLY-SPECIFIED
:DEGREES
203
root 17.0302 16.3232 20.7782 -158.62 -3.0567 174.598
lowerback -24.6346 -1.75356 -7.70996
upperback 1.07437 -0.105004 -1.20182
thorax 15.1971 -0.70203 2.96433
lowerneck -5.83493 1.48902 -0.616511
upperneck 13.3646 1.47403 1.83364
head 4.9506 0.658098 0.74365
rclavicle 7.10655e-015 1.8487e-014
rhumerus -34.8206 -22.3555 -75.7214
rradius 26.8552
rwrist 2.8018
rhand -9.42655 -411.636
rfingers 7.12502
rthumb 16.5358 279.049
lclavicle 7.10655e-015 1.8487e-014
lhumerus -29.0678 3.92799 82.1212
lradius 22.2007
lwrist -4.26528
lhand -21.2855 -13.3169
lfingers 7.12502
lthumb 5.09868 16.6018
rfemur -20.1166 11.0726 18.953
rtibia 10.7006
rfoot -20.1825 -5.64172
rtoes -14.9569
lfemur -54.947 -6.43819 -25.266
ltibia 73.4719
lfoot -8.33484 -3.50415
ltoes -25.7567
204
root 17.0361 16.3342 20.7618 -158.805 -3.02189 174.371
lowerback -24.5193 -1.7727 -7.98866
upperback 1.17896 -0.0451248 -1.20918
thorax 15.254 -0.699143 3.13668
lowerneck -5.73997 1.54279 -0.721979
upperneck 13.3551 1.54103 1.93818
head 4.92872 0.690539 0.796317
rclavicle -1.06847e-015 3.08116e-015
rhumerus -34.9643 -22.2593 -75.6428
rradius 27.1925
rwrist 2.77899
rhand -8.93193 -412.966
rfingers 7.12502
rthumb 17.012 277.759
lclavicle -1.06847e-015 3.08116e-015
lhumerus -29.1144 3.64982 82.2486
lradius 22.246
lwrist -4.3212
lhand -21.0616 -12.8305
lfingers 7.12502
lthumb 5.31492 17.0829
rfemur -19.8424 10.9843 18.7596
rtibia 10.7267
rfoot -20.029 -5.78265
rtoes -17.4091
lfemur -55.8175 -6.07017 -25.7463
ltibia 75.2607
lfoot -8.3568 -4.13161
ltoes -23.3213
205
root 17.0445 16.3421 20.7454 -158.911 -3.0324 174.234
lowerback -24.5042 -1.77177 -8.1676
upperback 1.28659 0.0222032 -1.21872
thorax 15.3703 -0.687471 3.25158
lowerneck -5.72217 1.68301 -0.684213
upperneck 13.3512 1.73499 1.88933
head 4.92266 0.784918 0.786193
rclavicle -2.23633e-015 3.05134e-014
rhumerus -34.9418 -22.1344 -75.6715
rradius 27.2874
rwrist 2.34654
rhand -9.1586 -412.095
rfingers 7.12502
rthumb 16.7938 278.612
lclavicle -2.23633e-015 3.05134e-014
lhumerus -29.0312 3.53709 82.2446
lradius 22.2317
lwrist -4.92645
lhand -21.0327 -12.8681
lfingers 7.12502
lthumb 5.3428 17.0446
rfemur -19.5605 11.1119 18.6604
rtibia 10.5711
rfoot -19.3132 -6.18675
rtoes -20.9868
lfemur -56.865 -5.60899 -26.2092
ltibia 77.18
lfoot -8.55039 -4.44472
ltoes -21.8037
206
root 17.0507 16.3425 20.7301 -159.008 -3.20024 174.317
lowerback -24.4877 -1.75944 -8.04032
upperback 1.3736 0.0124622 -1.20904
thorax 15.4674 -0.683601 3.18627
lowerneck -5.8734 1.67442 -0.280552
upperneck 13.641 1.71842 1.4842
head 5.04616 0.767385 0.596389
rclavicle -1.08835e-014 -3.37934e-015
rhumerus -34.8286 -22.401 -75.5519
rradius 27.0206
rwrist 2.1027
rhand -9.37256 -410.247
rfingers 7.12502
rthumb 16.5878 280.442
lclavicle -1.08835e-014 -3.37934e-015
lhumerus -28.9615 3.52467 82.1764
lradius 22.1322
lwrist -5.33983
lhand -21.2619 -12.8708
lfingers 7.12502
lthumb 5.1215 17.0473
rfemur -19.3585 11.0359 18.8509
rtibia 10.599
rfoot -19.3594 -6.40305
rtoes -22.2373
lfemur -58.0979 -5.21447 -26.459
ltibia 79.2246
lfoot -8.64296 -4.52188
ltoes -30.4162
207
root 17.0552 16.3503 20.7127 -159.254 -3.2033 174.136
lowerback -24.2729 -1.76825 -8.13267
upperback 1.43469 0.0240474 -1.29616
thorax 15.4172 -0.680027 3.14155
lowerneck -5.883 1.5501 -0.0650775
upperneck 13.9591 1.50803 1.40336
head 5.15083 0.660627 0.524218
rclavicle 4.94477e-015 -1.55052e-014
rhumerus -34.829 -22.2633 -75.682
rradius 26.9999
rwrist 2.08056
rhand -9.72457 -411.197
rfingers 7.12502
rthumb 16.2489 279.464
lclavicle 4.94477e-015 -1.55052e-014
lhumerus -29.0729 3.72424 82.0339
lradius 21.987
lwrist -5.58589
lhand -21.4904 -12.6162
lfingers 7.12502
lthumb 4.90086 17.3071
rfemur -19.1982 10.6256 18.7614
rtibia 11.0509
rfoot -20.4955 -6.1944
rtoes -20.2685
lfemur -59.0071 -4.85144 -26.989
ltibia 80.8581
lfoot -8.59396 -4.41978
ltoes -30.0175
208
root 17.0601 16.3612 20.699 -159.519 -3.23908 173.928
lowerback -23.9139 -1.77613 -8.22834
upperback 1.45526 0.0177556 -1.38308
thorax 15.2356 -0.679557 3.09398
lowerneck -5.69086 1.54002 -0.170863
upperneck 14.0183 1.45024 1.68141
head 5.13362 0.637658 0.622691
rclavicle -9.88954e-015 -3.97569e-016
rhumerus -35.0063 -22.3771 -75.5893
rradius 26.9881
rwrist 2.13096
rhand -9.66915 -411.291
rfingers 7.12502
rthumb 16.3022 279.375
lclavicle -9.88954e-015 -3.97569e-016
lhumerus -29.231 4.18262 81.7853
lradius 21.7865
lwrist -6.18891
lhand -21.7626 -12.5296
lfingers 7.12502
lthumb 4.63798 17.3996
rfemur -19.0199 10.131 18.6553
rtibia 11.5035
rfoot -21.2448 -6.04314
rtoes -19.795
lfemur -59.8459 -4.54681 -27.5123
ltibia 82.3395
lfoot -9.02192 -4.33359
ltoes -32.0839
209
root 17.0622 16.3609 20.6894 -159.485 -3.34419 174.012
lowerback -23.8922 -1.74201 -8.03083
upperback 1.46495 0.00537786 -1.35607
thorax 15.2345 -0.668394 3.00903
lowerneck -5.54803 1.66231 -0.336266
upperneck 13.8246 1.62135 1.85682
head 5.04441 0.726517 0.712462
rclavicle -7.4917e-015 2.64384e-014
rhumerus -35.0771 -22.5343 -75.4792
rradius 27.1125
rwrist 2.24454
rhand -9.38807 -411.203
rfingers 7.12502
rthumb 16.5729 279.485
lclavicle -7.4917e-015 2.64384e-014
lhumerus -29.2511 4.47122 81.6459
lradius 21.6756
lwrist -6.66864
lhand -21.7141 -12.475
lfingers 7.12502
lthumb 4.68488 17.4532
rfemur -19.0867 9.88557 18.8128
rtibia 11.6916
rfoot -21.2457 -6.01488
rtoes -20.304
lfemur -61.2077 -4.18006 -27.703
ltibia 84.0208
lfoot -9.44061 -4.41942
ltoes -33.0635
210
root 17.0633 16.3655 20.6733 -159.614 -3.2992 173.962
lowerback -23.8796 -1.71265 -8.0117
upperback 1.60073 0.0553357 -1.3459
thorax 15.387 -0.649357 3.02702
lowerneck -5.51384 1.76706 -0.458052
upperneck 13.6034 1.79357 1.87924
head 4.96677 0.81239 0.748281
rclavicle 8.74653e-015 -3.9906e-014
rhumerus -35.0608 -22.2541 -75.5805
rradius 27.493
rwrist 2.04305
rhand -9.25727 -411.824
rfingers 7.12502
rthumb 16.6988 278.874
lclavicle 8.74653e-015 -3.9906e-014
lhumerus -29.166 4.59235 81.5945
lradius 21.6062
lwrist -6.85002
lhand -21.0971 -12.0395
lfingers 7.12502
lthumb 5.28063 17.8748
rfemur -18.904 9.7738 18.7913
rtibia 11.7599
rfoot -21.267 -5.92584
rtoes -20.1688
lfemur -62.2821 -3.73985 -28.0449
ltibia 85.605
lfoot -9.50148 -4.90208
ltoes -29.9558
211
root 17.064 16.3664 20.6564 -159.776 -3.28869 173.91
lowerback -23.775 -1.72069 -7.97602
upperback 1.67682 0.0340094 -1.33573
thorax 15.4213 -0.656413 3.01072
lowerneck -5.52397 1.75541 -0.411215
upperneck 13.6663 1.78615 1.74975
head 4.98981 0.801763 0.700502
rclavicle -1.80149e-015 7.40473e-015
rhumerus -35.0442 -21.4214 -75.9488
rradius 27.9558
rwrist 1.2789
rhand -9.60351 -412.278
rfingers 7.12502
rthumb 16.3654 278.392
lclavicle -1.80149e-015 7.40473e-015
lhumerus -29.1411 4.83605 81.4775
lradius 21.396
lwrist -7.10938
lhand -20.5742 -11.7407
lfingers 7.12502
lthumb 5.78548 18.1603
rfemur -18.7151 9.6355 18.787
rtibia 11.9436
rfoot -21.4707 -5.81209
rtoes -19.9958
lfemur -63.3478 -3.39455 -28.324
ltibia 87.1587
lfoot -9.46788 -5.47944
ltoes -25.9688
212
root 17.0628 16.3695 20.6384 -159.933 -3.1937 173.755
lowerback -23.6336 -1.70037 -8.04757
upperback 1.71574 0.0754533 -1.36359
thorax 15.3821 -0.641128 3.03441
lowerneck -5.4878 1.74738 -0.456975
upperneck 13.7763 1.76914 1.74853
head 5.01731 0.787071 0.706725
rclavicle -5.6343e-015 1.13556e-014
rhumerus -35.0729 -21.2073 -75.8787
rradius 27.986
rwrist 1.66418
rhand -9.38426 -412.984
rfingers 7.12502
rthumb 16.5765 277.704
lclavicle -5.6343e-015 1.13556e-014
lhumerus -29.1638 4.95761 81.4208
lradius 21.2414
lwrist -7.47247
lhand -20.5665 -12.0725
lfingers 7.12502
lthumb 5.79285 17.8284
rfemur -18.5194 9.60821 18.6068
rtibia 12.0459
rfoot -21.6297 -5.64148
rtoes -19.4192
lfemur -64.4075 -3.027 -28.7529
ltibia 88.5768
lfoot -9.63798 -5.67838
ltoes -27.1015
213
root 17.0657 16.3771 20.6307 -160.124 -3.21755 173.658
lowerback -23.369 -1.68451 -8.10919
upperback 1.82684 0.101843 -1.34862
thorax 15.3606 -0.633007 3.09699
lowerneck -5.45997 1.88747 -0.798754
upperneck 13.6009 1.96965 2.04955
head 4.94866 0.891714 0.866507
rclavicle 2.66185e-015 6.49777e-015
rhumerus -34.9691 -21.4056 -75.6967
rradius 27.9495
rwrist 2.08178
rhand -9.52016 -414.6
rfingers 7.12502
rthumb 16.4457 276.077
lclavicle 2.66185e-015 6.49777e-015
lhumerus -29.0116 4.9568 81.4469
lradius 21.1127
lwrist -7.6686
lhand -20.5677 -12.7357
lfingers 7.12502
lthumb 5.79169 17.1652
rfemur -18.2965 9.64545 18.5315
rtibia 12.0989
rfoot -21.7135 -5.67661
rtoes -19.4508
lfemur -65.4496 -2.66475 -29.0749
ltibia 89.9536
lfoot -10.039 -5.58446
ltoes -30.5467
214
root 17.0603 16.3849 20.6035 -160.422 -2.91126 173.391
lowerback -23.3181 -1.57977 -8.24524
upperback 2.00233 0.306666 -1.46742
thorax 15.522 -0.555395 3.10743
lowerneck -5.47147 1.95338 -0.913743
upperneck 13.5222 2.05604 2.21708
head 4.92162 0.941268 0.941821
rclavicle -1.44119e-014 -6.94504e-014
rhumerus -34.952 -21.5674 -75.6408
rradius 27.8213
rwrist 1.92833
rhand -10.6567 -418.092
rfingers 7.12502
rthumb 15.3512 272.498
lclavicle -1.44119e-014 -6.94504e-014
lhumerus -28.9374 4.90342 81.4029
lradius 20.9902
lwrist -7.58352
lhand -20.476 -13.1328
lfingers 7.12502
lthumb 5.88031 16.7656
rfemur -17.9127 9.72621 18.1829
rtibia 12.1092
rfoot -21.7388 -5.63433
rtoes -20.3929
lfemur -66.1587 -2.15872 -29.6512
ltibia 90.9313
lfoot -10.2384 -5.415
ltoes -31.8308
215
root 17.0632 16.3858 20.5923 -160.762 -3.50288 173.477
lowerback -22.8008 -1.68621 -8.00486
upperback 2.05573 0.0530547 -1.43373
thorax 15.3113 -0.638029 2.92168
lowerneck -5.44711 1.8995 -0.672061
upperneck 13.6565 1.95918 2.0976
head 4.9647 0.893693 0.860087
rclavicle 1.72384e-015 -1.00138e-014
rhumerus -34.84 -19.3295 -77.2546
rradius 29.0705
rwrist -3.12
rhand -14.9679 -421.594
rfingers 7.12502
rthumb 11.1957 451.276
lclavicle 1.72384e-015 -1.00138e-014
lhumerus -29.1807 4.92612 81.2442
lradius 21.0782
lwrist -7.57785
lhand -20.3622 -13.1257
lfingers 7.12502
lthumb 5.99011 16.7696
rfemur -17.2471 9.58375 18.487
rtibia 11.8225
rfoot -21.6892 -6.07075
rtoes -21.2933
lfemur -67.061 -2.32507 -29.4881
ltibia 92.0827
lfoot -10.2842 -5.43006
ltoes -30.984
216
root 17.0637 16.3911 20.5763 -161.186 -4.22051 173.566
lowerback -22.2439 -1.85534 -7.7245
upperback 2.11659 -0.298895 -1.36227
thorax 15.0942 -0.763764 2.72596
lowerneck -5.39588 1.89388 -0.520859
upperneck 13.8893 1.92726 1.98291
head 5.03133 0.87039 0.798495
rclavicle -1.52691e-014 1.51698e-014
rhumerus -35.0276 -20.1548 -76.5253
rradius 28.6075
rwrist -0.286316
rhand -10.3061 -415.082
rfingers 7.12502
rthumb 15.6889 275.534
lclavicle -1.52691e-014 1.51698e-014
lhumerus -29.4975 4.99423 81.1111
lradius 21.1416
lwrist -7.58529
lhand -20.3139 -13.1968
lfingers 7.12502
lthumb 6.03681 16.6972
rfemur -16.45 9.4472 18.8218
rtibia 11.5331
rfoot -21.7554 -6.61878
rtoes -21.8011
lfemur -67.8263 -2.64118 -29.236
ltibia 93.1085
lfoot -10.395 -5.61728
ltoes -29.0624
217
root 17.0664 16.3969 20.5624 -161.481 -4.60992 173.583
lowerback -21.8284 -1.96424 -7.61999
upperback 2.14666 -0.51387 -1.27625
thorax 14.9087 -0.847031 2.69659
lowerneck -5.27326 1.9777 -0.622711
upperneck 13.9571 2.04222 1.97256
head 5.02869 0.916278 0.817618
rclavicle -2.84961e-014 -2.32392e-014
rhumerus -35.0998 -20.2543 -76.2856
rradius 28.5262
rwrist 0.536061
rhand -9.12372 -412.489
rfingers 7.12502
rthumb 16.8273 278.221
lclavicle -2.84961e-014 -2.32392e-014
lhumerus -29.695 4.96794 81.1007
lradius 21.0861
lwrist -7.35548
lhand -20.3949 -13.1385
lfingers 7.12502
lthumb 5.95859 16.7577
rfemur -16.0499 9.34654 19.019
rtibia 11.6606
rfoot -21.9662 -6.97425
rtoes -22.111
lfemur -68.6923 -2.70368 -29.0778
ltibia 93.9445
lfoot -10.3206 -5.80818
ltoes -25.3485
